<svg xmlns="http://www.w3.org/2000/svg" width="306.928" height="363.729" viewBox="0 0 306.928 363.729"><g transform="translate(-1532.035 -643)"><g transform="translate(1489 151)"><g transform="translate(83 31)"><path d="M473.2,513.6s4.15-9.257,15.413-2.44" transform="translate(-402.75 2.28)" fill="none" stroke="#000" stroke-width="2"/><path d="M473.2,513.6s4.15-9.257,15.413-2.44" transform="translate(-388.613 0)" fill="none" stroke="#000" stroke-width="2"/></g><g transform="translate(31 111)"><path d="M473.2,513.6s4.15-9.257,15.413-2.44" transform="translate(-402.75 2.28)" fill="none" stroke="#000" stroke-width="2"/><path d="M473.2,513.6s4.15-9.257,15.413-2.44" transform="translate(-388.613 0)" fill="none" stroke="#000" stroke-width="2"/></g></g><path d="M793.466,493.5s-2.533,38.5,0,62.5" transform="translate(1044 151)" fill="none" stroke="#000" stroke-width="3"/><line y1="52" x2="54" transform="translate(1685.5 644.5)" fill="none" stroke="#000" stroke-width="3"/><line x2="152" transform="translate(1685.5 644.5)" fill="none" stroke="#000" stroke-width="3"/><g transform="translate(1489 151)"><line y1="293" transform="translate(196.5 493.5)" fill="none" stroke="#000" stroke-width="3"/><path d="M641.324,786.252s-2.863-15.542-12.922-18.205" transform="translate(-445)" fill="none" stroke="#000" stroke-width="2"/><path d="M628.994,775.148c8.284,5.03,10.355,11.352,10.355,11.352s-1.775-23.482-5.917-26.737" transform="translate(-445)" fill="none" stroke="#000" stroke-width="2"/><path d="M628.4,786.252s2.372-15.542,10.705-18.205" transform="translate(-432.078)" fill="none" stroke="#000" stroke-width="2"/><path d="M639.349,775.148c-8.284,5.03-10.355,11.352-10.355,11.352s1.775-23.482,5.917-26.737" transform="translate(-432.67)" fill="none" stroke="#000" stroke-width="2"/></g><g transform="translate(1489 151)"><path d="M526.182,876.6s129.623-153.79,304.285,0" transform="translate(-482 -22)" fill="none" stroke="#000" stroke-width="3"/><path d="M7.735,10.9S6.021,1.594,0,0" transform="matrix(0.966, 0.259, -0.259, 0.966, 99.044, 796.95)" fill="none" stroke="#000" stroke-width="2"/><path d="M0,9.209C4.958,12.219,6.2,16,6.2,16S5.136,1.948,2.656,0" transform="matrix(0.966, 0.259, -0.259, 0.966, 100.669, 792.252)" fill="none" stroke="#000" stroke-width="2"/><path d="M9.9,0s-3.047,9.012.38,13.159" transform="matrix(-0.966, 0.259, -0.259, -0.966, 344.433, 839.914)" fill="none" stroke="#000" stroke-width="2"/><path d="M4.178,8.827A16.01,16.01,0,0,1,3.006,0s-5.648,12.924-4.83,15.773" transform="matrix(-0.966, 0.259, -0.259, -0.966, 336.404, 841.536)" fill="none" stroke="#000" stroke-width="2"/></g></g></svg>