<svg xmlns="http://www.w3.org/2000/svg" width="367.288" height="363.726" viewBox="0 0 367.288 363.726"><g transform="translate(-1420.035 -618)"><line x1="20.784" y1="67.029" transform="translate(1731.645 774.599)" fill="none" stroke="#000" stroke-width="2"/><line y1="67.029" x2="12.99" transform="translate(1718.655 774.599)" fill="none" stroke="#000" stroke-width="2"/><line x1="15.069" y1="56.637" transform="translate(1731.645 720.521)" fill="none" stroke="#000" stroke-width="2"/><line y1="57.217" x2="11.09" transform="translate(1720.41 720.5)" fill="none" stroke="#000" stroke-width="2"/><line y2="69.108" transform="translate(1731.645 707.492)" fill="none" stroke="#000" stroke-width="2"/><g transform="translate(1307 103)"><g transform="matrix(0.695, 0.719, -0.719, 0.695, 445.294, 547.506)" fill="#fff" stroke="#000" stroke-width="2"><ellipse cx="25.201" cy="28.319" rx="25.201" ry="28.319" stroke="none"/><ellipse cx="25.201" cy="28.319" rx="24.201" ry="27.319" fill="none"/></g><g transform="translate(436.512 568.389) rotate(42)"><line x2="8.833" y2="8.314" fill="none" stroke="#000" stroke-width="2"/><line x1="8.833" y2="8.314" fill="none" stroke="#000" stroke-width="2"/></g><g transform="translate(453.659 576.183) rotate(42)"><line x2="8.833" y2="8.314" fill="none" stroke="#000" stroke-width="2"/><line x1="8.833" y2="8.314" fill="none" stroke="#000" stroke-width="2"/></g><line x2="17.086" y2="11.913" transform="translate(425.5 592.5)" fill="none" stroke="#000" stroke-width="2"/></g><path d="M793.466,493.5s-2.533,38.5,0,62.5" transform="translate(932 126)" fill="none" stroke="#000" stroke-width="3"/><line y1="52" x2="54" transform="translate(1573.5 619.5)" fill="none" stroke="#000" stroke-width="3"/><line x2="152" transform="translate(1573.5 619.5)" fill="none" stroke="#000" stroke-width="3"/><line y1="293" transform="translate(1573.5 619.5)" fill="none" stroke="#000" stroke-width="3"/><path d="M526.182,876.6s129.623-153.79,304.285,0" transform="translate(895 104)" fill="none" stroke="#000" stroke-width="3"/><path d="M7.735,10.9S6.021,1.594,0,0" transform="translate(1476.044 922.95) rotate(15.009)" fill="none" stroke="#000" stroke-width="2"/><path d="M0,9.209C4.958,12.219,6.2,16,6.2,16S5.136,1.948,2.656,0" transform="translate(1477.669 918.252) rotate(15.009)" fill="none" stroke="#000" stroke-width="2"/><path d="M9.9,0s-3.047,9.012.38,13.159" transform="translate(1721.433 965.914) rotate(164.991)" fill="none" stroke="#000" stroke-width="2"/><path d="M4.178,8.827A16.01,16.01,0,0,1,3.006,0s-5.648,12.924-4.83,15.773" transform="translate(1713.404 967.536) rotate(164.991)" fill="none" stroke="#000" stroke-width="2"/><path d="M641.324,786.252s-2.863-15.542-12.922-18.205" transform="translate(932 126)" fill="none" stroke="#000" stroke-width="2"/><path d="M628.994,775.148c8.284,5.03,10.355,11.352,10.355,11.352s-1.775-23.482-5.917-26.737" transform="translate(932 126)" fill="none" stroke="#000" stroke-width="2"/><path d="M628.4,786.252s2.372-15.542,10.705-18.205" transform="translate(944.922 126)" fill="none" stroke="#000" stroke-width="2"/><path d="M639.349,775.148c-8.284,5.03-10.355,11.352-10.355,11.352s1.775-23.482,5.917-26.737" transform="translate(944.33 126)" fill="none" stroke="#000" stroke-width="2"/><g transform="translate(1460 157)"><path d="M473.2,513.6s4.15-9.257,15.413-2.44" transform="translate(-402.75 2.28)" fill="none" stroke="#000" stroke-width="2"/><path d="M473.2,513.6s4.15-9.257,15.413-2.44" transform="translate(-388.613)" fill="none" stroke="#000" stroke-width="2"/></g><g transform="translate(1408 237)"><path d="M473.2,513.6s4.15-9.257,15.413-2.44" transform="translate(-402.75 2.28)" fill="none" stroke="#000" stroke-width="2"/><path d="M473.2,513.6s4.15-9.257,15.413-2.44" transform="translate(-388.613)" fill="none" stroke="#000" stroke-width="2"/></g><text transform="translate(1562.994 964.5)" fill="#c00" font-size="52" font-family="CourierNewPSMT, Courier New" letter-spacing="0.07em"><tspan x="0" y="0">0</tspan></text></g></svg>